<mxfile host="app.diagrams.net" modified="2023-04-09T13:43:57.456Z" agent="5.0 (Windows NT 10.0; Win64; x64) AppleWebKit/537.36 (KHTML, like Gecko) Chrome/111.0.0.0 Safari/537.36 Edg/111.0.1661.44" version="20.6.0" etag="bpO6uW7-pWIzB_3Lcce7" type="github">
  <diagram id="pRnf_kgRrJlSljQ2Lzuj" name="第 1 页">
    <mxGraphModel dx="760" dy="487" grid="1" gridSize="10" guides="1" tooltips="1" connect="1" arrows="1" fold="1" page="1" pageScale="1" pageWidth="827" pageHeight="1169" math="0" shadow="0">
      <root>
        <mxCell id="0" />
        <mxCell id="1" parent="0" />
        <mxCell id="dpUODQ5_mUz6Qf_J9i_Q-4" value="" style="whiteSpace=wrap;html=1;rounded=0;movable=1;resizable=1;rotatable=1;deletable=1;editable=1;connectable=1;" vertex="1" parent="1">
          <mxGeometry x="40" y="200" width="740" height="330" as="geometry" />
        </mxCell>
        <mxCell id="dpUODQ5_mUz6Qf_J9i_Q-67" value="io" style="rounded=0;whiteSpace=wrap;html=1;" vertex="1" parent="1">
          <mxGeometry x="700" y="380" width="60" height="80" as="geometry" />
        </mxCell>
        <mxCell id="dpUODQ5_mUz6Qf_J9i_Q-2" value="text" style="text;html=1;strokeColor=none;fillColor=none;align=center;verticalAlign=middle;whiteSpace=wrap;rounded=0;" vertex="1" parent="1">
          <mxGeometry x="40" y="200" width="30" height="20" as="geometry" />
        </mxCell>
        <mxCell id="dpUODQ5_mUz6Qf_J9i_Q-5" value="" style="edgeStyle=orthogonalEdgeStyle;rounded=0;orthogonalLoop=1;jettySize=auto;html=1;exitX=0.5;exitY=1;exitDx=0;exitDy=0;" edge="1" parent="1" source="dpUODQ5_mUz6Qf_J9i_Q-3" target="dpUODQ5_mUz6Qf_J9i_Q-6">
          <mxGeometry relative="1" as="geometry">
            <mxPoint x="90" y="180" as="targetPoint" />
            <Array as="points">
              <mxPoint x="400" y="180" />
              <mxPoint x="80" y="180" />
            </Array>
          </mxGeometry>
        </mxCell>
        <mxCell id="dpUODQ5_mUz6Qf_J9i_Q-3" value="multiboot_header" style="rounded=0;whiteSpace=wrap;html=1;" vertex="1" parent="1">
          <mxGeometry x="40" y="140" width="740" height="20" as="geometry" />
        </mxCell>
        <mxCell id="dpUODQ5_mUz6Qf_J9i_Q-10" value="call" style="edgeStyle=orthogonalEdgeStyle;rounded=0;orthogonalLoop=1;jettySize=auto;html=1;" edge="1" parent="1" source="dpUODQ5_mUz6Qf_J9i_Q-6" target="dpUODQ5_mUz6Qf_J9i_Q-9">
          <mxGeometry relative="1" as="geometry" />
        </mxCell>
        <mxCell id="dpUODQ5_mUz6Qf_J9i_Q-6" value="start" style="rounded=0;whiteSpace=wrap;html=1;" vertex="1" parent="1">
          <mxGeometry x="60" y="220" width="40" height="20" as="geometry" />
        </mxCell>
        <mxCell id="dpUODQ5_mUz6Qf_J9i_Q-15" value="jmp" style="edgeStyle=orthogonalEdgeStyle;rounded=0;orthogonalLoop=1;jettySize=auto;html=1;" edge="1" parent="1" source="dpUODQ5_mUz6Qf_J9i_Q-9" target="dpUODQ5_mUz6Qf_J9i_Q-14">
          <mxGeometry relative="1" as="geometry" />
        </mxCell>
        <mxCell id="dpUODQ5_mUz6Qf_J9i_Q-9" value="_start" style="rounded=0;whiteSpace=wrap;html=1;" vertex="1" parent="1">
          <mxGeometry x="140" y="240" width="40" height="20" as="geometry" />
        </mxCell>
        <mxCell id="dpUODQ5_mUz6Qf_J9i_Q-17" value="" style="edgeStyle=orthogonalEdgeStyle;rounded=0;orthogonalLoop=1;jettySize=auto;html=1;" edge="1" parent="1" source="dpUODQ5_mUz6Qf_J9i_Q-14" target="dpUODQ5_mUz6Qf_J9i_Q-16">
          <mxGeometry relative="1" as="geometry" />
        </mxCell>
        <mxCell id="dpUODQ5_mUz6Qf_J9i_Q-14" value="establish_stack" style="rounded=0;whiteSpace=wrap;html=1;" vertex="1" parent="1">
          <mxGeometry x="220" y="260" width="90" height="20" as="geometry" />
        </mxCell>
        <mxCell id="dpUODQ5_mUz6Qf_J9i_Q-19" value="" style="edgeStyle=orthogonalEdgeStyle;rounded=0;orthogonalLoop=1;jettySize=auto;html=1;" edge="1" parent="1" source="dpUODQ5_mUz6Qf_J9i_Q-16" target="dpUODQ5_mUz6Qf_J9i_Q-18">
          <mxGeometry relative="1" as="geometry" />
        </mxCell>
        <mxCell id="dpUODQ5_mUz6Qf_J9i_Q-16" value="zero_bss" style="rounded=0;whiteSpace=wrap;html=1;" vertex="1" parent="1">
          <mxGeometry x="230" y="300" width="70" height="20" as="geometry" />
        </mxCell>
        <mxCell id="dpUODQ5_mUz6Qf_J9i_Q-21" value="call" style="edgeStyle=orthogonalEdgeStyle;rounded=0;orthogonalLoop=1;jettySize=auto;html=1;" edge="1" parent="1" source="dpUODQ5_mUz6Qf_J9i_Q-18" target="dpUODQ5_mUz6Qf_J9i_Q-20">
          <mxGeometry relative="1" as="geometry" />
        </mxCell>
        <mxCell id="dpUODQ5_mUz6Qf_J9i_Q-18" value="to_main" style="rounded=0;whiteSpace=wrap;html=1;" vertex="1" parent="1">
          <mxGeometry x="240" y="340" width="50" height="20" as="geometry" />
        </mxCell>
        <mxCell id="dpUODQ5_mUz6Qf_J9i_Q-25" value="" style="edgeStyle=orthogonalEdgeStyle;rounded=0;orthogonalLoop=1;jettySize=auto;html=1;" edge="1" parent="1" source="dpUODQ5_mUz6Qf_J9i_Q-20" target="dpUODQ5_mUz6Qf_J9i_Q-24">
          <mxGeometry relative="1" as="geometry">
            <Array as="points">
              <mxPoint x="385" y="390" />
              <mxPoint x="355" y="390" />
            </Array>
          </mxGeometry>
        </mxCell>
        <mxCell id="dpUODQ5_mUz6Qf_J9i_Q-20" value="osStart (.c)" style="rounded=0;whiteSpace=wrap;html=1;" vertex="1" parent="1">
          <mxGeometry x="330" y="360" width="110" height="20" as="geometry" />
        </mxCell>
        <mxCell id="dpUODQ5_mUz6Qf_J9i_Q-27" value="" style="edgeStyle=orthogonalEdgeStyle;rounded=0;orthogonalLoop=1;jettySize=auto;html=1;" edge="1" parent="1" source="dpUODQ5_mUz6Qf_J9i_Q-24" target="dpUODQ5_mUz6Qf_J9i_Q-26">
          <mxGeometry relative="1" as="geometry" />
        </mxCell>
        <mxCell id="dpUODQ5_mUz6Qf_J9i_Q-53" style="edgeStyle=orthogonalEdgeStyle;rounded=0;orthogonalLoop=1;jettySize=auto;html=1;exitX=1;exitY=0.5;exitDx=0;exitDy=0;entryX=0;entryY=0.5;entryDx=0;entryDy=0;" edge="1" parent="1" source="dpUODQ5_mUz6Qf_J9i_Q-24" target="dpUODQ5_mUz6Qf_J9i_Q-36">
          <mxGeometry relative="1" as="geometry">
            <Array as="points">
              <mxPoint x="460" y="435" />
              <mxPoint x="460" y="230" />
            </Array>
          </mxGeometry>
        </mxCell>
        <mxCell id="dpUODQ5_mUz6Qf_J9i_Q-56" style="edgeStyle=orthogonalEdgeStyle;rounded=0;orthogonalLoop=1;jettySize=auto;html=1;exitX=1;exitY=0.5;exitDx=0;exitDy=0;" edge="1" parent="1" source="dpUODQ5_mUz6Qf_J9i_Q-24" target="dpUODQ5_mUz6Qf_J9i_Q-47">
          <mxGeometry relative="1" as="geometry">
            <Array as="points">
              <mxPoint x="460" y="435" />
              <mxPoint x="460" y="360" />
            </Array>
          </mxGeometry>
        </mxCell>
        <mxCell id="dpUODQ5_mUz6Qf_J9i_Q-24" value="&lt;div&gt;clear_screen&lt;/div&gt;&lt;div&gt;myPrintk(0x2,&quot;START......\n&quot;);&lt;/div&gt;&lt;div&gt;&lt;span style=&quot;&quot;&gt;	&lt;/span&gt;myMain();&lt;/div&gt;&lt;div&gt;&lt;span style=&quot;&quot;&gt;	&lt;/span&gt;myPrintk(0x2,&quot;STOP......\n&quot;);&lt;/div&gt;" style="whiteSpace=wrap;html=1;rounded=0;" vertex="1" parent="1">
          <mxGeometry x="270" y="400" width="170" height="70" as="geometry" />
        </mxCell>
        <mxCell id="dpUODQ5_mUz6Qf_J9i_Q-26" value="&lt;div&gt;while(1)&lt;/div&gt;" style="whiteSpace=wrap;html=1;rounded=0;" vertex="1" parent="1">
          <mxGeometry x="330" y="490" width="50" height="20" as="geometry" />
        </mxCell>
        <mxCell id="dpUODQ5_mUz6Qf_J9i_Q-30" value="bss" style="rounded=0;whiteSpace=wrap;html=1;" vertex="1" parent="1">
          <mxGeometry x="40" y="590" width="740" height="20" as="geometry" />
        </mxCell>
        <mxCell id="dpUODQ5_mUz6Qf_J9i_Q-32" value="data" style="rounded=0;whiteSpace=wrap;html=1;" vertex="1" parent="1">
          <mxGeometry x="40" y="550" width="740" height="20" as="geometry" />
        </mxCell>
        <mxCell id="dpUODQ5_mUz6Qf_J9i_Q-49" value="call1" style="edgeStyle=orthogonalEdgeStyle;rounded=0;orthogonalLoop=1;jettySize=auto;html=1;exitX=0.75;exitY=1;exitDx=0;exitDy=0;entryX=0.5;entryY=1;entryDx=0;entryDy=0;curved=1;" edge="1" parent="1" source="dpUODQ5_mUz6Qf_J9i_Q-35" target="dpUODQ5_mUz6Qf_J9i_Q-44">
          <mxGeometry relative="1" as="geometry" />
        </mxCell>
        <mxCell id="dpUODQ5_mUz6Qf_J9i_Q-55" value="call2" style="edgeStyle=orthogonalEdgeStyle;rounded=0;orthogonalLoop=1;jettySize=auto;html=1;curved=1;entryX=0.25;entryY=0;entryDx=0;entryDy=0;" edge="1" parent="1" source="dpUODQ5_mUz6Qf_J9i_Q-35" target="dpUODQ5_mUz6Qf_J9i_Q-47">
          <mxGeometry relative="1" as="geometry" />
        </mxCell>
        <mxCell id="dpUODQ5_mUz6Qf_J9i_Q-35" value="myPrintk/myPrintf" style="rounded=0;whiteSpace=wrap;html=1;" vertex="1" parent="1">
          <mxGeometry x="480" y="270" width="120" height="20" as="geometry" />
        </mxCell>
        <mxCell id="dpUODQ5_mUz6Qf_J9i_Q-38" value="call" style="edgeStyle=orthogonalEdgeStyle;rounded=0;orthogonalLoop=1;jettySize=auto;html=1;exitX=0.5;exitY=1;exitDx=0;exitDy=0;" edge="1" parent="1" source="dpUODQ5_mUz6Qf_J9i_Q-36" target="dpUODQ5_mUz6Qf_J9i_Q-35">
          <mxGeometry x="-0.3846" relative="1" as="geometry">
            <mxPoint as="offset" />
          </mxGeometry>
        </mxCell>
        <mxCell id="dpUODQ5_mUz6Qf_J9i_Q-36" value="myMain at main.c" style="rounded=0;whiteSpace=wrap;html=1;" vertex="1" parent="1">
          <mxGeometry x="480" y="220" width="120" height="20" as="geometry" />
        </mxCell>
        <mxCell id="dpUODQ5_mUz6Qf_J9i_Q-41" value="outb" style="rounded=0;whiteSpace=wrap;html=1;" vertex="1" parent="1">
          <mxGeometry x="710" y="430" width="40" height="20" as="geometry" />
        </mxCell>
        <mxCell id="dpUODQ5_mUz6Qf_J9i_Q-54" value="return" style="edgeStyle=orthogonalEdgeStyle;rounded=0;orthogonalLoop=1;jettySize=auto;html=1;exitX=0;exitY=0.5;exitDx=0;exitDy=0;entryX=1;entryY=0.5;entryDx=0;entryDy=0;" edge="1" parent="1" source="dpUODQ5_mUz6Qf_J9i_Q-44" target="dpUODQ5_mUz6Qf_J9i_Q-35">
          <mxGeometry relative="1" as="geometry" />
        </mxCell>
        <mxCell id="dpUODQ5_mUz6Qf_J9i_Q-44" value="vsprintf" style="rounded=0;whiteSpace=wrap;html=1;" vertex="1" parent="1">
          <mxGeometry x="660" y="270" width="50" height="20" as="geometry" />
        </mxCell>
        <mxCell id="dpUODQ5_mUz6Qf_J9i_Q-50" value="return" style="edgeStyle=orthogonalEdgeStyle;rounded=0;orthogonalLoop=1;jettySize=auto;html=1;exitX=0.25;exitY=1;exitDx=0;exitDy=0;entryX=0.75;entryY=1;entryDx=0;entryDy=0;" edge="1" parent="1" source="dpUODQ5_mUz6Qf_J9i_Q-35" target="dpUODQ5_mUz6Qf_J9i_Q-24">
          <mxGeometry relative="1" as="geometry" />
        </mxCell>
        <mxCell id="dpUODQ5_mUz6Qf_J9i_Q-47" value="" style="whiteSpace=wrap;html=1;rounded=0;movable=0;resizable=0;rotatable=0;deletable=0;editable=0;connectable=0;" vertex="1" parent="1">
          <mxGeometry x="540" y="330" width="140" height="180" as="geometry" />
        </mxCell>
        <mxCell id="dpUODQ5_mUz6Qf_J9i_Q-52" value="call" style="edgeStyle=orthogonalEdgeStyle;rounded=0;orthogonalLoop=1;jettySize=auto;html=1;entryX=0;entryY=0.5;entryDx=0;entryDy=0;exitX=1;exitY=0.5;exitDx=0;exitDy=0;" edge="1" parent="1" source="dpUODQ5_mUz6Qf_J9i_Q-24" target="dpUODQ5_mUz6Qf_J9i_Q-35">
          <mxGeometry x="-0.3332" relative="1" as="geometry">
            <Array as="points">
              <mxPoint x="460" y="435" />
              <mxPoint x="460" y="280" />
            </Array>
            <mxPoint as="offset" />
          </mxGeometry>
        </mxCell>
        <mxCell id="dpUODQ5_mUz6Qf_J9i_Q-57" value="vga" style="text;html=1;strokeColor=none;fillColor=none;align=center;verticalAlign=middle;whiteSpace=wrap;rounded=0;" vertex="1" parent="1">
          <mxGeometry x="540" y="330" width="40" height="20" as="geometry" />
        </mxCell>
        <mxCell id="dpUODQ5_mUz6Qf_J9i_Q-66" style="edgeStyle=orthogonalEdgeStyle;curved=1;rounded=0;orthogonalLoop=1;jettySize=auto;html=1;exitX=1;exitY=0.5;exitDx=0;exitDy=0;entryX=0.5;entryY=0;entryDx=0;entryDy=0;" edge="1" parent="1" source="dpUODQ5_mUz6Qf_J9i_Q-58" target="dpUODQ5_mUz6Qf_J9i_Q-67">
          <mxGeometry relative="1" as="geometry" />
        </mxCell>
        <mxCell id="dpUODQ5_mUz6Qf_J9i_Q-58" value="update_cursor" style="rounded=0;whiteSpace=wrap;html=1;" vertex="1" parent="1">
          <mxGeometry x="570" y="350" width="80" height="20" as="geometry" />
        </mxCell>
        <mxCell id="dpUODQ5_mUz6Qf_J9i_Q-69" style="edgeStyle=orthogonalEdgeStyle;curved=1;rounded=0;orthogonalLoop=1;jettySize=auto;html=1;exitX=1;exitY=0.5;exitDx=0;exitDy=0;entryX=0;entryY=0.25;entryDx=0;entryDy=0;" edge="1" parent="1" source="dpUODQ5_mUz6Qf_J9i_Q-59" target="dpUODQ5_mUz6Qf_J9i_Q-67">
          <mxGeometry relative="1" as="geometry" />
        </mxCell>
        <mxCell id="dpUODQ5_mUz6Qf_J9i_Q-59" value="get_cursor_position" style="rounded=0;whiteSpace=wrap;html=1;" vertex="1" parent="1">
          <mxGeometry x="550" y="390" width="120" height="20" as="geometry" />
        </mxCell>
        <mxCell id="dpUODQ5_mUz6Qf_J9i_Q-64" style="edgeStyle=orthogonalEdgeStyle;curved=1;rounded=0;orthogonalLoop=1;jettySize=auto;html=1;exitX=0;exitY=0.5;exitDx=0;exitDy=0;entryX=0;entryY=0.5;entryDx=0;entryDy=0;" edge="1" parent="1" source="dpUODQ5_mUz6Qf_J9i_Q-60" target="dpUODQ5_mUz6Qf_J9i_Q-58">
          <mxGeometry relative="1" as="geometry" />
        </mxCell>
        <mxCell id="dpUODQ5_mUz6Qf_J9i_Q-60" value="append2screen" style="rounded=0;whiteSpace=wrap;html=1;" vertex="1" parent="1">
          <mxGeometry x="560" y="470" width="100" height="20" as="geometry" />
        </mxCell>
        <mxCell id="dpUODQ5_mUz6Qf_J9i_Q-65" style="edgeStyle=orthogonalEdgeStyle;curved=1;rounded=0;orthogonalLoop=1;jettySize=auto;html=1;exitX=0;exitY=0.5;exitDx=0;exitDy=0;entryX=0;entryY=0.5;entryDx=0;entryDy=0;" edge="1" parent="1" source="dpUODQ5_mUz6Qf_J9i_Q-61" target="dpUODQ5_mUz6Qf_J9i_Q-58">
          <mxGeometry relative="1" as="geometry" />
        </mxCell>
        <mxCell id="dpUODQ5_mUz6Qf_J9i_Q-61" value="clear_screen" style="rounded=0;whiteSpace=wrap;html=1;" vertex="1" parent="1">
          <mxGeometry x="570" y="430" width="80" height="20" as="geometry" />
        </mxCell>
        <mxCell id="dpUODQ5_mUz6Qf_J9i_Q-71" style="edgeStyle=orthogonalEdgeStyle;rounded=0;orthogonalLoop=1;jettySize=auto;html=1;exitX=0.5;exitY=1;exitDx=0;exitDy=0;" edge="1" parent="1" source="dpUODQ5_mUz6Qf_J9i_Q-62" target="dpUODQ5_mUz6Qf_J9i_Q-67">
          <mxGeometry relative="1" as="geometry" />
        </mxCell>
        <mxCell id="dpUODQ5_mUz6Qf_J9i_Q-62" value="urat" style="rounded=0;whiteSpace=wrap;html=1;" vertex="1" parent="1">
          <mxGeometry x="705" y="330" width="50" height="20" as="geometry" />
        </mxCell>
        <mxCell id="dpUODQ5_mUz6Qf_J9i_Q-63" value="inb" style="rounded=0;whiteSpace=wrap;html=1;" vertex="1" parent="1">
          <mxGeometry x="710" y="390" width="40" height="20" as="geometry" />
        </mxCell>
      </root>
    </mxGraphModel>
  </diagram>
</mxfile>
